<?xml version="1.0" standalone="no"?>
<!DOCTYPE svg PUBLIC "-//W3C//DTD SVG 20010904//EN"
 "http://www.w3.org/TR/2001/REC-SVG-20010904/DTD/svg10.dtd">
<svg version="1.0" xmlns="http://www.w3.org/2000/svg"
 width="662.000000pt" height="104.000000pt" viewBox="0 0 662.000000 104.000000"
 preserveAspectRatio="xMidYMid meet">

<g transform="translate(0.000000,104.000000) scale(0.100000,-0.100000)"
fill="#000000" stroke="none">
<path d="M5720 1001 c0 -16 -9 -45 -19 -63 -12 -21 -21 -61 -25 -108 -4 -61
-3 -69 5 -40 6 19 13 46 16 60 2 14 12 36 22 48 16 21 16 11 16 -205 0 -204 2
-238 23 -324 13 -53 24 -116 25 -140 2 -43 1 -45 -43 -66 l-45 -22 45 0 c50
-1 59 3 83 38 14 21 14 27 2 51 -16 31 -38 133 -56 259 -13 95 -7 311 12 438
7 45 11 84 8 87 -2 2 -19 7 -36 11 -32 6 -33 5 -33 -24z"/>
<path d="M5349 968 c-1 -13 -1 -26 -1 -29 2 -13 -50 -164 -59 -174 -5 -5 -9
-17 -9 -27 0 -22 -28 -68 -41 -68 -6 0 -14 10 -19 23 -8 20 -9 20 -9 -8 -1
-47 12 -61 44 -47 14 7 37 12 50 12 21 0 25 -5 25 -29 0 -50 -10 -60 -81 -82
-38 -12 -66 -25 -63 -30 8 -14 52 -11 85 7 17 8 33 13 35 11 13 -12 -37 -156
-68 -198 -29 -39 -16 -49 17 -13 50 57 69 98 76 162 4 35 11 68 17 74 6 6 42
22 79 34 37 13 58 24 46 24 -28 0 -29 10 -5 41 35 47 47 79 36 97 -13 20 -70
26 -134 14 -35 -7 -41 -11 -26 -17 10 -5 32 -3 50 3 49 18 86 15 86 -5 0 -10
-4 -23 -8 -28 -7 -11 -173 -46 -181 -39 -10 10 23 116 58 184 27 53 44 75 57
75 12 0 18 -6 16 -17 -2 -16 10 -16 57 -2 25 8 -9 34 -44 34 -19 0 -39 8 -50
20 -24 26 -35 25 -36 -2z m45 -299 c-4 -8 3 -9 26 -4 25 5 31 4 28 -6 -2 -8
-14 -18 -26 -24 -13 -6 -20 -16 -17 -24 6 -16 -11 -31 -37 -31 -15 0 -18 9
-18 44 0 43 7 53 38 55 7 1 10 -4 6 -10z"/>
<path d="M6278 960 c3 -21 10 -30 23 -30 24 0 24 22 1 43 -26 23 -29 21 -24
-13z"/>
<path d="M4748 964 c-3 -5 -9 -38 -14 -74 -7 -64 -9 -90 -12 -217 -2 -49 -5
-63 -17 -63 -9 0 -15 10 -16 28 0 15 -2 62 -3 105 -1 42 -7 82 -13 88 -18 18
-30 -66 -21 -156 5 -51 4 -81 -2 -83 -19 -7 -10 -19 13 -16 12 1 23 3 25 4 3
3 11 5 66 14 45 7 51 5 66 -15 19 -24 37 -19 50 15 6 16 16 22 32 21 34 -2 33
-28 -3 -56 -18 -13 -38 -30 -46 -38 -8 -8 -26 -11 -44 -9 -23 4 -37 -2 -61
-24 -36 -33 -30 -47 12 -31 36 13 36 11 9 -34 -15 -24 -19 -43 -15 -64 4 -22
2 -29 -10 -29 -52 0 -97 -59 -75 -98 9 -14 10 -13 11 9 0 32 18 48 64 59 31 7
35 5 38 -14 2 -11 -8 -36 -21 -54 -21 -29 -29 -33 -55 -28 -29 5 -30 5 -12 -9
29 -22 47 -19 88 15 26 22 38 40 40 63 3 36 14 39 72 20 45 -15 46 -15 46 -5
-1 19 -21 36 -47 38 -15 1 -36 2 -45 3 -10 0 -18 7 -18 15 0 7 -16 21 -35 30
-31 15 -48 30 -26 24 9 -3 81 86 81 100 0 5 25 19 55 31 30 13 55 27 55 32 0
5 6 9 14 9 7 0 19 6 25 14 10 12 8 19 -9 36 -18 18 -29 20 -60 15 -21 -4 -40
-2 -43 2 -3 5 -1 29 5 54 15 68 26 153 21 167 -3 7 -14 17 -24 22 -22 12 -79
-19 -103 -56 -31 -47 -47 -20 -26 43 7 20 22 33 44 41 19 7 39 19 46 27 19 22
-14 31 -44 11 -23 -14 -25 -14 -38 6 -8 12 -17 17 -20 12z m128 -167 c-4 -17
-15 -26 -37 -31 -38 -7 -35 -8 -44 26 -6 23 -2 29 32 47 37 19 38 19 47 1 5
-10 6 -30 2 -43z m-116 -82 c0 -42 -4 -55 -15 -55 -11 0 -14 9 -11 33 2 17 4
42 5 55 0 12 6 22 11 22 6 0 10 -25 10 -55z m101 -18 c-8 -8 -11 -4 -11 14 0
33 14 47 18 19 2 -12 -1 -27 -7 -33z m-37 6 c-5 -19 -2 -30 11 -40 22 -15 12
-30 -25 -35 -23 -3 -25 -1 -22 36 4 46 19 79 33 71 5 -4 6 -18 3 -32z m16 -93
c0 -5 -5 -10 -11 -10 -5 0 -7 5 -4 10 3 6 8 10 11 10 2 0 4 -4 4 -10z"/>
<path d="M1160 946 c0 -7 -7 -19 -16 -26 -8 -8 -20 -22 -25 -32 -10 -19 -10
-19 16 -2 14 9 27 15 30 13 5 -5 -21 -178 -28 -185 -15 -15 -137 -35 -184 -30
-29 4 -53 4 -53 1 0 -4 20 -15 44 -26 42 -18 48 -18 108 -4 87 20 90 20 82
-12 -15 -64 -46 -121 -72 -133 -23 -10 -24 -13 -10 -21 10 -6 15 -16 11 -25
-3 -9 14 -1 40 19 25 19 73 51 106 71 34 21 61 39 61 41 0 3 -8 9 -19 14 -14
8 -28 4 -62 -18 l-45 -28 16 63 c13 51 24 70 56 98 27 25 34 35 22 36 -9 0
-20 -4 -23 -10 -3 -5 -12 -10 -20 -10 -10 0 -7 22 12 96 13 53 22 103 19 110
-7 19 -66 18 -66 0z"/>
<path d="M2464 928 c4 -19 -3 -68 -19 -130 -14 -54 -25 -113 -25 -129 0 -23
-10 -40 -37 -64 -21 -19 -35 -37 -30 -41 4 -4 16 1 27 11 23 20 22 23 20 -65
-2 -125 41 -263 72 -232 5 5 8 40 6 78 -3 64 -4 67 -15 42 -38 -86 -51 29 -23
206 4 27 6 56 3 65 -2 9 5 45 17 80 11 35 20 69 20 76 0 7 7 26 15 41 22 43
19 67 -11 81 -26 12 -26 12 -20 -19z"/>
<path d="M2786 938 c9 -29 6 -85 -6 -108 -5 -10 -39 -28 -74 -40 -36 -13 -63
-27 -60 -32 9 -14 38 -8 64 12 14 11 33 20 44 20 15 0 17 -5 12 -27 -13 -53
-28 -82 -48 -89 -17 -5 -18 -7 -3 -18 14 -10 12 -15 -15 -41 -25 -24 -33 -27
-40 -15 -5 8 -6 19 -2 24 3 6 7 20 8 33 2 20 0 21 -17 10 -16 -10 -18 -20 -13
-82 7 -94 12 -109 30 -94 8 6 14 22 14 35 0 22 16 60 30 74 3 3 13 16 22 31 9
15 34 31 59 39 24 7 49 17 54 21 18 14 38 -7 32 -32 -9 -34 -37 -67 -43 -51
-8 17 -49 15 -68 -3 -8 -8 -19 -15 -25 -15 -17 0 -13 -21 9 -58 16 -27 18 -37
9 -48 -28 -34 8 -10 58 39 53 51 113 142 113 171 0 35 -47 35 -134 0 -15 -6
-17 -3 -13 12 3 10 11 38 17 61 9 38 15 44 50 53 49 13 51 26 5 34 -28 6 -35
11 -35 31 0 13 -4 35 -10 49 -12 32 -34 35 -24 4z m22 -386 c-22 -35 -42 -34
-46 3 -5 38 24 63 47 40 14 -14 14 -18 -1 -43z"/>
<path d="M3876 948 c-18 -10 -53 -16 -104 -17 -31 -1 -19 -18 19 -26 49 -11
28 -28 -65 -54 -66 -19 -83 -27 -70 -34 16 -9 75 -5 124 9 24 6 23 5 -9 -29
-19 -20 -49 -41 -66 -47 -17 -6 -41 -23 -52 -39 -42 -56 14 -73 86 -25 51 34
77 25 74 -24 -5 -58 -19 -79 -58 -85 -51 -8 -125 -53 -125 -76 0 -20 75 -71
104 -71 28 0 17 -27 -24 -63 -41 -35 -53 -73 -25 -83 21 -8 59 18 84 60 12 19
49 56 82 83 63 52 224 141 235 130 3 -3 -18 -42 -47 -87 -41 -62 -58 -80 -72
-76 -13 3 -17 -1 -15 -14 2 -11 -13 -36 -37 -59 -43 -45 -38 -52 13 -21 l33
20 28 -21 c53 -39 139 -11 229 74 49 46 92 112 92 140 0 41 -67 87 -126 87
-15 0 -23 4 -19 10 4 6 1 17 -5 25 -14 17 -66 20 -75 5 -3 -5 3 -10 14 -10 12
0 21 -4 21 -8 0 -21 -32 -43 -110 -76 -47 -20 -111 -53 -143 -72 -32 -20 -60
-34 -62 -32 -14 13 19 76 50 97 28 19 33 27 24 37 -6 8 -17 14 -25 14 -20 0
-23 12 -13 60 9 41 15 48 63 73 61 32 91 60 81 76 -11 19 -53 12 -115 -21 -84
-43 -95 -26 -22 33 49 40 67 48 132 59 87 15 106 25 88 47 -9 11 -25 14 -58
10 -35 -4 -50 -1 -69 14 -26 22 -38 23 -65 7z m34 -176 c0 -12 -39 -42 -55
-42 -23 0 -18 13 13 32 31 19 42 21 42 10z m-119 -217 c0 -6 -5 -29 -11 -52
-8 -35 -15 -43 -33 -43 -25 0 -87 35 -87 49 0 15 27 32 72 46 47 15 60 15 59
0z m437 9 c25 -7 37 -41 28 -79 -7 -27 -94 -121 -137 -147 -37 -23 -93 -32
-118 -19 -28 16 -27 22 14 67 19 22 56 72 82 111 50 76 66 84 131 67z"/>
<path d="M2093 939 c38 -22 14 -112 -50 -181 -23 -26 -43 -56 -43 -68 0 -25
15 -26 33 0 26 37 110 54 121 24 9 -24 -4 -64 -23 -64 -24 -1 -121 -51 -174
-90 -35 -26 -49 -45 -57 -75 -22 -80 -42 -135 -49 -135 -5 0 -9 28 -10 62 -1
33 -3 64 -6 67 -6 11 22 154 39 193 13 31 14 42 4 58 -18 28 -36 25 -31 -4 3
-13 -2 -52 -11 -86 -21 -83 -21 -316 0 -344 13 -19 14 -19 33 3 11 13 25 47
31 77 6 29 15 56 20 59 5 3 6 21 3 40 -5 33 -4 35 23 35 18 0 24 3 16 8 -19
12 33 56 102 87 65 29 79 27 50 -7 -10 -13 -3 -8 17 10 37 34 65 43 55 16 -3
-9 -6 -21 -6 -28 0 -7 -11 -25 -25 -40 -38 -41 -12 -30 41 17 52 48 56 77 9
77 -24 0 -26 3 -20 29 9 41 -25 76 -66 67 -16 -3 -29 -4 -29 -3 0 1 14 29 30
61 44 87 37 146 -18 146 -23 -1 -25 -2 -9 -11z"/>
<path d="M656 924 c-9 -24 -7 -34 7 -31 9 1 12 -17 11 -68 -1 -114 -3 -118
-81 -141 -46 -13 -69 -25 -71 -36 -3 -16 1 -16 54 2 82 28 82 28 73 -32 -5
-29 -11 -75 -14 -103 -9 -78 12 -21 27 75 13 87 24 96 57 54 45 -57 14 -224
-51 -279 -38 -32 -53 -28 -51 16 l1 34 -10 -32 c-6 -18 -14 -33 -17 -33 -11 1
-37 25 -49 45 -8 14 -11 16 -12 5 0 -9 12 -33 26 -54 25 -37 26 -41 16 -109
-6 -39 -10 -73 -8 -75 2 -1 11 29 21 68 15 60 20 70 39 70 53 0 105 69 136
182 29 105 27 151 -9 180 -15 12 -36 28 -46 34 -16 9 -17 15 -7 55 6 24 14 72
18 106 6 55 4 62 -14 72 -28 15 -39 14 -46 -5z"/>
<path d="M266 864 c-54 -19 -114 -35 -133 -36 -53 -2 -37 -30 25 -41 25 -5 46
1 95 28 35 19 67 35 70 35 16 0 4 -26 -39 -81 -40 -50 -49 -57 -62 -47 -13 11
-14 8 -10 -19 5 -37 4 -39 -124 -238 -48 -74 -79 -131 -70 -126 40 21 110 111
152 196 47 94 65 116 88 107 8 -3 18 1 23 9 13 20 11 29 -6 29 -8 0 -15 4 -15
9 0 14 73 102 115 140 31 27 36 37 28 50 -15 24 -28 22 -137 -15z"/>
<path d="M6370 883 c-61 -24 -142 -64 -137 -69 3 -3 19 2 35 10 47 24 123 48
130 41 4 -4 -10 -20 -31 -37 -38 -31 -65 -68 -49 -68 4 0 17 8 28 18 10 10 40
33 67 51 58 42 61 61 10 60 -21 0 -45 -3 -53 -6z"/>
<path d="M5400 850 c13 -9 13 -11 0 -21 -13 -9 -12 -10 3 -5 10 3 27 6 38 6
10 0 19 7 19 15 0 11 -11 15 -37 15 -29 0 -34 -3 -23 -10z"/>
<path d="M6140 779 c-36 -15 -86 -31 -112 -35 -27 -4 -48 -10 -48 -15 0 -13
57 -49 79 -49 12 0 45 23 75 53 30 28 62 57 73 64 31 20 1 12 -67 -18z"/>
<path d="M6541 753 c-7 -32 -26 -87 -42 -122 -35 -76 -36 -87 -8 -94 15 -4 19
-3 11 5 -7 7 2 43 29 119 38 107 47 149 31 149 -4 0 -13 -26 -21 -57z"/>
<path d="M440 768 c0 -7 -18 -37 -41 -67 l-41 -54 39 24 c21 12 46 28 55 33
25 15 30 34 15 56 -13 23 -27 26 -27 8z"/>
<path d="M4590 725 c0 -68 18 -155 32 -155 11 0 5 161 -8 194 -13 33 -24 15
-24 -39z"/>
<path d="M1697 712 c-4 -31 -18 -100 -31 -154 -35 -134 -40 -230 -15 -280 23
-45 46 -49 78 -14 20 22 24 38 27 118 l4 93 -25 -76 c-22 -69 -57 -121 -71
-107 -3 3 -5 41 -5 84 0 93 18 151 66 213 40 51 43 78 15 114 -11 14 -20 32
-20 40 0 9 -4 18 -9 21 -4 3 -11 -20 -14 -52z"/>
<path d="M6266 719 c-29 -34 -31 -40 -15 -56 8 -8 5 -15 -11 -26 -16 -11 -19
-21 -14 -41 7 -29 15 -32 44 -14 27 17 32 8 24 -43 -6 -39 -21 -58 -116 -157
-69 -71 -108 -119 -106 -130 6 -33 33 -22 71 30 63 88 116 153 128 157 19 6
-13 -188 -34 -201 -7 -4 -37 -8 -67 -8 -70 -1 -48 -16 37 -25 l61 -7 11 38 c6
22 16 86 23 144 11 91 16 110 45 153 38 57 38 73 0 27 -14 -16 -28 -30 -31
-30 -11 0 -5 45 9 70 21 37 18 43 -17 36 l-33 -6 28 26 c23 21 26 28 16 40 -7
8 -18 13 -25 10 -21 -8 -25 6 -7 26 9 10 14 18 10 18 -3 0 -17 -14 -31 -31z"/>
<path d="M1910 720 c0 -5 5 -10 10 -10 6 0 10 5 10 10 0 6 -4 10 -10 10 -5 0
-10 -4 -10 -10z"/>
<path d="M5600 716 c0 -8 5 -18 10 -21 6 -3 10 -28 10 -54 0 -45 21 -93 35
-79 4 4 8 44 10 89 2 70 1 78 -9 54 l-12 -28 -12 27 c-12 28 -32 35 -32 12z"/>
<path d="M346 613 c-4 -4 -30 -15 -59 -25 l-52 -18 70 6 c72 5 107 20 83 35
-16 11 -32 11 -42 2z"/>
<path d="M4510 584 c0 -9 -8 -38 -17 -65 -19 -53 -15 -67 15 -48 25 16 36 67
22 103 -11 29 -20 34 -20 10z"/>
<path d="M314 533 c-6 -20 -42 -43 -69 -43 -8 0 -17 -5 -21 -11 -5 -9 6 -10
40 -7 43 5 46 4 46 -18 0 -18 -9 -27 -34 -38 -19 -8 -42 -27 -52 -41 -17 -26
-17 -28 1 -41 10 -8 34 -14 52 -14 36 0 46 13 57 73 5 26 14 41 29 47 l22 9
-22 0 c-33 1 -31 45 2 67 30 20 34 39 4 24 -15 -9 -24 -8 -35 1 -12 10 -16 9
-20 -8z m-4 -147 c0 -28 -12 -46 -30 -46 -27 0 -31 13 -14 38 17 25 44 29 44
8z"/>
<path d="M2000 530 c-9 -6 -10 -10 -3 -10 6 0 15 5 18 10 8 12 4 12 -15 0z"/>
<path d="M6541 493 c33 -65 22 -153 -28 -220 -25 -35 -17 -45 13 -16 28 28 54
95 54 141 0 45 -21 102 -45 122 -8 7 -5 -5 6 -27z"/>
<path d="M5474 505 c-18 -14 -18 -14 8 -15 28 0 31 -6 42 -72 6 -35 29 -57 41
-38 12 19 -7 105 -28 122 -24 22 -37 22 -63 3z"/>
<path d="M1374 444 c-10 -20 -45 -66 -79 -101 l-62 -65 -44 22 c-24 13 -60 34
-81 48 -26 17 -45 22 -63 18 -30 -8 -31 1 -5 34 37 47 21 54 -25 12 -56 -50
-125 -139 -125 -160 0 -38 18 -33 50 16 17 27 44 56 60 66 34 19 32 20 146
-51 64 -39 74 -42 100 -33 35 13 95 78 126 138 13 23 26 42 29 42 6 0 59 -75
59 -85 0 -2 -24 -19 -52 -36 -33 -19 -43 -29 -28 -25 14 3 49 10 78 17 30 6
56 17 59 25 3 7 -11 32 -31 56 -20 23 -36 49 -36 58 0 9 -5 21 -12 28 -22 22
-47 13 -64 -24z"/>
<path d="M5368 413 c5 -73 14 -93 42 -93 32 0 36 78 5 79 -5 0 -12 17 -15 38
-3 23 -11 39 -20 41 -14 2 -15 -8 -12 -65z"/>
<path d="M2136 456 c3 -7 -2 -19 -11 -26 -22 -18 -19 -30 9 -30 27 0 59 26 53
43 -2 6 -15 14 -29 18 -19 5 -25 3 -22 -5z"/>
<path d="M622 440 c0 -14 2 -19 5 -12 2 6 2 18 0 25 -3 6 -5 1 -5 -13z"/>
<path d="M420 443 c33 -12 50 -37 50 -74 0 -42 -15 -56 -108 -103 -30 -15 -52
-29 -50 -32 6 -5 104 28 145 50 34 17 43 33 43 79 0 37 -43 87 -74 86 -15 0
-16 -2 -6 -6z"/>
<path d="M2698 413 c-14 -16 -31 -39 -38 -53 -15 -29 -6 -21 39 38 37 48 37
55 -1 15z"/>
<path d="M2963 387 c16 -24 16 -26 -2 -32 -10 -3 -28 -16 -41 -30 l-23 -24
-28 29 c-16 16 -39 30 -52 32 -25 4 -75 -9 -97 -26 -8 -7 -27 -17 -42 -24 -24
-10 -28 -9 -28 6 -1 11 -6 8 -16 -12 -13 -22 -14 -34 -5 -53 9 -20 14 -22 30
-13 11 5 22 18 25 28 11 33 53 63 93 69 35 5 43 2 61 -22 12 -15 22 -33 22
-40 0 -15 38 -65 50 -65 4 0 11 16 15 36 8 43 23 72 49 96 20 19 61 24 70 9 8
-13 48 -1 43 13 -2 6 -24 14 -49 17 -25 4 -56 13 -69 19 -23 13 -23 13 -6 -13z"/>
<path d="M2145 308 c5 -20 -4 -34 -52 -79 -32 -30 -71 -65 -88 -77 -27 -20
-28 -21 -5 -13 35 12 151 79 173 99 43 39 39 72 -11 87 -20 6 -22 4 -17 -17z"/>
</g>
</svg>
